<?xml version="1.0" encoding="UTF-8" standalone="no"?>
<svg
   viewBox="0 0 24 24"
   version="1.1"
   id="svg4"
   sodipodi:docname="clipboard-file-outline.svg"
   inkscape:version="1.2 (dc2aedaf03, 2022-05-15)"
   xmlns:inkscape="http://www.inkscape.org/namespaces/inkscape"
   xmlns:sodipodi="http://sodipodi.sourceforge.net/DTD/sodipodi-0.dtd"
   xmlns="http://www.w3.org/2000/svg"
   xmlns:svg="http://www.w3.org/2000/svg">
  <defs
     id="defs8" />
  <sodipodi:namedview
     id="namedview6"
     pagecolor="#ffffff"
     bordercolor="#666666"
     borderopacity="1.0"
     inkscape:showpageshadow="2"
     inkscape:pageopacity="0.0"
     inkscape:pagecheckerboard="0"
     inkscape:deskcolor="#d1d1d1"
     showgrid="false"
     inkscape:zoom="35.333333"
     inkscape:cx="5.5896226"
     inkscape:cy="12"
     inkscape:window-width="1920"
     inkscape:window-height="992"
     inkscape:window-x="0"
     inkscape:window-y="40"
     inkscape:window-maximized="1"
     inkscape:current-layer="svg4" />
  <path
     d="M15 23C13.9 23 13 22.11 13 21V12C13 10.9 13.9 10 15 10H19L23 14V21C23 22.11 22.11 23 21 23H15M15 21H21V14.83L18.17 12H15V21M19 3C20.1 3 21 3.9 21 5V9.17L19.83 8H19V5H17V7H7V5H5V19H11V21H5C3.9 21 3 20.1 3 19V5C3 3.9 3.9 3 5 3H9.18C9.6 1.84 10.7 1 12 1C13.3 1 14.4 1.84 14.82 3H19M12 3C11.45 3 11 3.45 11 4C11 4.55 11.45 5 12 5C12.55 5 13 4.55 13 4C13 3.45 12.55 3 12 3Z"
     id="path2"
     style="stroke:none;stroke-opacity:1;fill:#4dabf5;fill-opacity:1" />
</svg>
